<svg width="61" height="40" viewBox="0 0 61 40" fill="none" xmlns="http://www.w3.org/2000/svg">
<g clip-path="url(#clip0_7918_1544)">
<path d="M23.8532 10.126V14.6163H20.081V11.9918L12.2396 5.51478L4.77063 11.6838V36.7927H20.9691V40H0V10.126L12.2594 0L23.8532 10.126Z" fill="#F0BA4E"/>
<path d="M23.8532 15.8076H7.354V20.0001H23.8532V15.8076Z" fill="#C9CFCC"/>
<path d="M7.354 23.1387H23.8532V27.5373H11.9266V30.1948H23.8532V34.4101H7.354V23.1387Z" fill="#C9CFCC"/>
<path d="M61 15.8076H44.5007V20.0001H61V15.8076Z" fill="#C9CFCC"/>
<path d="M44.5007 23.1387H61V27.5373H49.0734V30.1948H61V34.4101H44.5007V23.1387Z" fill="#C9CFCC"/>
<path d="M43.5579 25.017C43.5581 27.1257 42.8138 29.1706 41.4494 30.8101C40.085 32.4496 38.1832 33.5844 36.0615 34.0249C33.9399 34.4655 31.727 34.1851 29.7924 33.2307C27.8579 32.2762 26.3189 30.7054 25.4325 28.7808C24.5461 26.8561 24.366 24.6941 24.9223 22.6559C25.4786 20.6177 26.7376 18.8268 28.489 17.5823C30.2404 16.3378 32.3781 15.7151 34.545 15.8181C36.7119 15.9212 38.7768 16.7439 40.3948 18.1487L36.7932 21.6493C35.9874 21.1225 35.0375 20.8427 34.0663 20.8459C33.0952 20.8491 32.1473 21.1353 31.3452 21.6675C30.5431 22.1996 29.9235 22.9533 29.5665 23.8311C29.2096 24.709 29.1316 25.6707 29.3427 26.5921C29.5537 27.5135 30.0442 28.3522 30.7507 28.9999C31.4571 29.6476 32.3472 30.0745 33.3058 30.2256C34.2645 30.3767 35.2477 30.2449 36.1285 29.8473C37.0093 29.4497 37.7473 28.8046 38.247 27.9952H32.4327V24.4213H43.5381C43.5513 24.6187 43.5579 24.8172 43.5579 25.017Z" fill="#C9CFCC"/>
</g>
<defs>
<clipPath id="clip0_7918_1544">
<rect width="61" height="40" fill="white"/>
</clipPath>
</defs>
</svg>
