<svg width="26" height="26" viewBox="0 0 26 26" fill="none" xmlns="http://www.w3.org/2000/svg">
<path d="M1 20.2998V23.7299C1 24.4319 1.61802 24.9979 2.38004 24.9979H11.6223C12.3843 24.9979 13.0004 24.4319 13.0004 23.7299V22.6479" stroke="black" stroke-miterlimit="10" stroke-linecap="round" stroke-linejoin="round"/>
<path d="M1 20.2999V10.3396L3.22007 8.5495L12.2663 1.25329C12.6844 0.919275 13.3024 0.915275 13.7244 1.24329L13.7364 1.25329L22.7767 8.5455C22.7847 8.55151 22.7907 8.5575 22.7987 8.56551L25.0007 10.3416V23.732C25.0007 24.434 24.3847 25 23.6227 25H16.6265" stroke="black" stroke-miterlimit="10" stroke-linecap="round" stroke-linejoin="round"/>
<path d="M17.3925 13.6939C17.3925 15.404 16.3904 16.882 14.9424 17.5701C14.3864 17.8341 13.7624 17.9821 13.1023 17.9821C12.4363 17.9821 11.8023 17.8301 11.2403 17.5581C9.80424 16.864 8.81421 15.394 8.81421 13.6939C8.81421 11.3239 10.7343 9.40381 13.1043 9.40381C15.4724 9.40381 17.3925 11.3239 17.3925 13.6939Z" fill="#F0BA4E" stroke="black" stroke-miterlimit="10" stroke-linecap="round" stroke-linejoin="round"/>
<path d="M14.9423 17.5696V20.2537C14.9423 20.8417 14.4643 21.3197 13.8743 21.3197H12.3063C11.7183 21.3197 11.2402 20.8417 11.2402 20.2537V17.5576C11.8023 17.8296 12.4363 17.9816 13.1023 17.9816C13.7603 17.9836 14.3843 17.8356 14.9423 17.5696Z" stroke="black" stroke-miterlimit="10" stroke-linecap="round" stroke-linejoin="round"/>
<path d="M14.1083 19.1616H11.2402" stroke="black" stroke-miterlimit="10" stroke-linecap="round" stroke-linejoin="round"/>
<path d="M6.97428 14.3838H5.75024" stroke="black" stroke-miterlimit="10" stroke-linecap="round" stroke-linejoin="round"/>
<path d="M20.3086 14.3838H19.0825" stroke="black" stroke-miterlimit="10" stroke-linecap="round" stroke-linejoin="round"/>
<path d="M19.7285 10.4595L18.6685 11.0715" stroke="black" stroke-miterlimit="10" stroke-linecap="round" stroke-linejoin="round"/>
<path d="M14.1083 20.144H11.2402" stroke="black" stroke-miterlimit="10" stroke-linecap="round" stroke-linejoin="round"/>
<path d="M7.5341 11.0156L6.41406 10.5156" stroke="black" stroke-miterlimit="10" stroke-linecap="round" stroke-linejoin="round"/>
<path d="M9.76026 8.3954L9.04224 7.40137" stroke="black" stroke-miterlimit="10" stroke-linecap="round" stroke-linejoin="round"/>
<path d="M16.4604 8.38774L17.1965 7.40771" stroke="black" stroke-miterlimit="10" stroke-linecap="round" stroke-linejoin="round"/>
<path d="M13.1023 7.65328V6.42725" stroke="black" stroke-miterlimit="10" stroke-linecap="round" stroke-linejoin="round"/>
<path d="M13.3224 11.9077L12.1223 13.9178H14.1084L13.0763 15.9018" stroke="black" stroke-miterlimit="10" stroke-linecap="round" stroke-linejoin="round"/>
</svg>
