<svg width="26" height="26" viewBox="0 0 26 26" fill="none" xmlns="http://www.w3.org/2000/svg">
<path d="M22.9974 8.33486V12.8569C22.9974 13.2307 22.8393 13.57 22.5831 13.8168C22.3268 14.0618 21.9725 14.2142 21.5818 14.2142C20.8004 14.2142 20.1662 13.6081 20.1662 12.8569L20.2443 11.6901C20.2316 11.612 20.2043 11.5376 20.1662 11.4687C20.0317 11.2146 19.7482 11.0513 19.4393 11.0677C19.1776 11.084 18.9468 11.2273 18.8214 11.4378C18.7633 11.5322 18.7269 11.6411 18.7197 11.7572L18.8214 15.5243C18.8214 15.8981 18.6633 16.2375 18.4071 16.4843C18.2508 16.6349 18.0582 16.7492 17.8438 16.8145C17.8438 16.8145 17.6239 16.8816 17.4058 16.8798C16.9479 16.8744 16.2537 16.3028 15.9902 15.5225C15.6122 14.4029 16.3791 13.6154 15.9902 12.2998C15.9157 12.0512 15.8212 11.8497 15.7903 11.7862C15.6104 11.4197 15.356 10.8935 14.7927 10.5777C14.72 10.5378 13.8368 10.0587 13.0518 10.467C12.9391 10.5269 12.5902 10.7265 12.4085 11.1221C12.1541 11.6774 12.423 12.2 12.4085 13.296C12.4067 13.3758 12.403 13.5391 12.3431 13.7406C12.2304 14.1017 12.0087 14.3303 11.9269 14.4083C11.6289 14.6932 11.2182 14.8693 10.7657 14.8693C9.85893 14.8693 9.12296 14.1634 9.12296 13.296V11.3743C9.12296 10.9025 8.7159 10.5269 8.26523 10.5342C7.86363 10.5432 7.51291 10.8572 7.45294 11.2546C7.44204 11.329 7.44204 11.4088 7.45294 11.4905V12.2254C7.45294 12.5992 7.29484 12.9385 7.03861 13.1835C6.7842 13.4285 6.42985 13.5809 6.03915 13.5809C5.25774 13.5809 4.62354 12.9748 4.62354 12.2254V8.33486C4.62354 7.58543 5.25774 6.97754 6.03915 6.97754H21.5818C22.3632 6.97754 22.9974 7.58543 22.9974 8.33486Z" fill="#FCC156"/>
<path d="M6.03915 6.97754H4.62354V8.33486" fill="#FCC156"/>
<path d="M21.5818 6.97754H22.9974V8.33486" fill="#FCC156"/>
<path d="M13.8022 15.7349H15.6431V23.0786C15.6431 24.1401 14.7817 25.0002 13.7186 25.0002C12.6556 25.0002 11.7942 24.1401 11.7942 23.0786V15.7349H13.7186C13.7477 15.7349 13.775 15.7349 13.8022 15.7367V15.7349V15.7349Z" stroke="black" stroke-miterlimit="10" stroke-linecap="round" stroke-linejoin="round"/>
<path d="M25.0001 2.54423V5.64357C25.0001 6.49644 24.3078 7.1878 23.4537 7.1878H4.08942C3.23533 7.1878 2.54297 6.49644 2.54297 5.64357V2.54423C2.54297 1.69136 3.23533 1 4.08942 1H23.4537C24.3078 1.00181 25.0001 1.69318 25.0001 2.54423Z" stroke="black" stroke-miterlimit="10" stroke-linecap="round" stroke-linejoin="round"/>
<path d="M2.54645 3.84521C2.54463 3.84521 2.54463 3.84521 2.54282 3.84521C1.69054 3.84703 1 4.59465 1 5.51647V6.98992C1 7.91356 1.69236 8.66118 2.54645 8.66118H11.1819H12.4085" stroke="black" stroke-miterlimit="10" stroke-linecap="round" stroke-linejoin="round"/>
<path d="M13.8023 15.7363V10.3487C13.8023 9.41601 13.1772 8.66113 12.4085 8.66113H11.1819" stroke="black" stroke-miterlimit="10" stroke-linecap="round" stroke-linejoin="round"/>
<path d="M13.8023 15.7349V15.7367C13.7751 15.7349 13.7478 15.7349 13.7188 15.7349H13.8023Z" stroke="black" stroke-miterlimit="10" stroke-linecap="round" stroke-linejoin="round"/>
<path d="M13.7496 22.8531C14.0588 22.8531 14.3093 22.6029 14.3093 22.2942C14.3093 21.9856 14.0588 21.7354 13.7496 21.7354C13.4405 21.7354 13.1899 21.9856 13.1899 22.2942C13.1899 22.6029 13.4405 22.8531 13.7496 22.8531Z" fill="#010202" stroke="black" stroke-miterlimit="10"/>
</svg>
